<?xml version="1.0" standalone="no"?><!DOCTYPE svg PUBLIC "-//W3C//DTD SVG 1.1//EN" "http://www.w3.org/Graphics/SVG/1.1/DTD/svg11.dtd"><svg t="1664871846613" class="icon" viewBox="0 0 1024 1024" version="1.1" xmlns="http://www.w3.org/2000/svg" p-id="4452" xmlns:xlink="http://www.w3.org/1999/xlink" width="200" height="200"><path d="M900.992 128.981333H122.197333c-31.488 0-57.173333 25.728-57.173333 57.216V666.026667c0 31.530667 25.685333 57.216 57.173333 57.216h356.821334v107.904H331.690667a31.658667 31.658667 0 0 0-31.573334 31.573333c0 17.408 14.165333 31.616 31.573334 31.616h358.4c17.408 0 31.573333-14.208 31.573333-31.573333a31.658667 31.658667 0 0 0-31.573333-31.616h-147.882667V723.2h358.826667c31.445333 0 57.173333-25.685333 57.173333-57.173333V186.154667c0-31.488-25.728-57.173333-57.173333-57.173334z m-5.973333 63.232v467.797334H128.213333V192.213333h766.805334z" fill="#fff" opacity=".65" p-id="4453"></path></svg>
