<?xml version="1.0" standalone="no"?><!DOCTYPE svg PUBLIC "-//W3C//DTD SVG 1.1//EN" "http://www.w3.org/Graphics/SVG/1.1/DTD/svg11.dtd"><svg t="1664606495915" class="icon" viewBox="0 0 1152 1024" version="1.1" xmlns="http://www.w3.org/2000/svg" p-id="2549" xmlns:xlink="http://www.w3.org/1999/xlink" width="225" height="200"><path d="M960 832v32c0 53.02-42.98 96-96 96H96c-53.02 0-96-42.98-96-96V352c0-53.02 42.98-96 96-96h32v96H108a12 12 0 0 0-12 12v488a12 12 0 0 0 12 12h744a12 12 0 0 0 12-12v-20h96z m84-672H300a12 12 0 0 0-12 12v488a12 12 0 0 0 12 12h744a12 12 0 0 0 12-12V172a12 12 0 0 0-12-12z m12-96c53.02 0 96 42.98 96 96v512c0 53.02-42.98 96-96 96H288c-53.02 0-96-42.98-96-96V160c0-53.02 42.98-96 96-96h768zM528 288c0 44.182-35.818 80-80 80s-80-35.818-80-80 35.818-80 80-80 80 35.818 80 80z m-144 192l79.03-79.03c9.372-9.372 24.568-9.372 33.942 0L576 480l207.03-207.03c9.372-9.372 24.568-9.372 33.942 0L960 416v160H384v-96z" p-id="2550" fill="#bbbbbb"></path></svg>